<svg xmlns="http://www.w3.org/2000/svg" width="14.181" height="16.671" viewBox="0 0 14.181 16.671">
  <g id="avatar" transform="translate(-36.073)">
    <g id="Group_14" data-name="Group 14" transform="translate(36.073)">
      <path id="Path_41" data-name="Path 41" d="M140.624,8.983h.11a3.186,3.186,0,0,0,2.434-1.053c1.329-1.5,1.108-4.067,1.084-4.312A3.522,3.522,0,0,0,142.578.487,3.838,3.838,0,0,0,140.721,0h-.059A3.844,3.844,0,0,0,138.8.473a3.524,3.524,0,0,0-1.7,3.145c-.024.245-.245,2.814,1.084,4.312A3.173,3.173,0,0,0,140.624,8.983ZM138.032,3.7c0-.01,0-.021,0-.028.114-2.475,1.871-2.741,2.624-2.741h.041a2.524,2.524,0,0,1,2.624,2.741.067.067,0,0,0,0,.028c0,.024.245,2.372-.853,3.608a2.263,2.263,0,0,1-1.778.739h-.035a2.255,2.255,0,0,1-1.775-.739C137.793,6.083,138.028,3.725,138.032,3.7Z" transform="translate(-133.594)" fill="#49b6e7"/>
      <path id="Path_42" data-name="Path 42" d="M50.253,263.537v-.01c0-.028,0-.055,0-.086-.021-.684-.066-2.282-1.564-2.793l-.035-.01a9.962,9.962,0,0,1-2.865-1.3.466.466,0,1,0-.535.763,10.752,10.752,0,0,0,3.152,1.44c.8.287.894,1.146.918,1.933a.694.694,0,0,0,0,.086,6.266,6.266,0,0,1-.073,1.067,12.706,12.706,0,0,1-6.087,1.415,12.779,12.779,0,0,1-6.09-1.419A5.933,5.933,0,0,1,37,263.551c0-.028,0-.055,0-.086.024-.787.114-1.647.918-1.933a10.853,10.853,0,0,0,3.152-1.44.466.466,0,0,0-.535-.763,9.854,9.854,0,0,1-2.865,1.305l-.035.01c-1.5.514-1.543,2.113-1.564,2.793a.694.694,0,0,1,0,.086v.01a5.294,5.294,0,0,0,.176,1.564.443.443,0,0,0,.18.217,13.058,13.058,0,0,0,6.739,1.65,13.1,13.1,0,0,0,6.739-1.65.462.462,0,0,0,.18-.217A5.554,5.554,0,0,0,50.253,263.537Z" transform="translate(-36.073 -250.294)" fill="#49b6e7"/>
    </g>
  </g>
</svg>
