<svg xmlns="http://www.w3.org/2000/svg" width="16.099" height="16.376" viewBox="0 0 16.099 16.376">
  <g id="XMLID_2749_" transform="translate(0.1 0.1)">
    <g id="XMLID_17_" transform="translate(0 0)">
      <path id="XMLID_848_" d="M14.9,4.09a3.428,3.428,0,0,0-2.172-1.039,3.983,3.983,0,0,0-1.263-2.1A3.852,3.852,0,0,0,5.808,1.6a3.217,3.217,0,0,0-2.021,0,.317.317,0,0,0-.2.4.309.309,0,0,0,.392.2,2.6,2.6,0,0,1,1.827.07.308.308,0,0,0,.379-.12,3.258,3.258,0,0,1,5.976,1.258.312.312,0,0,0,.3.264,2.9,2.9,0,0,1-.04,5.808h-.344V7.652c0-.364-.23-.882-1.325-1.28a8.5,8.5,0,0,0-2.805-.426,8.5,8.5,0,0,0-2.805.426c-1.095.4-1.325.916-1.325,1.28V9.478H2.613a2.032,2.032,0,0,1-.622-3.952.316.316,0,0,0,.21-.35,2.755,2.755,0,0,1-.034-.43,2.725,2.725,0,0,1,.114-.781.317.317,0,0,0-.207-.394.31.31,0,0,0-.387.21,3.366,3.366,0,0,0-.141.965c0,.091,0,.183.011.274A2.667,2.667,0,0,0,2.613,10.11H3.819v4.36c0,.364.23.882,1.325,1.28a8.5,8.5,0,0,0,2.805.426,8.5,8.5,0,0,0,2.805-.426c1.095-.4,1.325-.916,1.325-1.28V10.11h.344A3.51,3.51,0,0,0,15.9,6.574a3.546,3.546,0,0,0-1-2.484ZM11.458,9.925c0,.163-.239.44-.913.685a7.884,7.884,0,0,1-2.6.389,7.884,7.884,0,0,1-2.6-.389c-.674-.245-.913-.523-.913-.685V8.593a3.431,3.431,0,0,0,.7.34,8.5,8.5,0,0,0,2.805.426,8.5,8.5,0,0,0,2.805-.426,3.431,3.431,0,0,0,.7-.34Zm-7.018.941a3.431,3.431,0,0,0,.7.34,8.5,8.5,0,0,0,2.805.426,8.5,8.5,0,0,0,2.805-.426,3.431,3.431,0,0,0,.7-.34V12.2c0,.163-.239.44-.913.685a7.884,7.884,0,0,1-2.6.389,7.884,7.884,0,0,1-2.6-.389c-.674-.245-.913-.522-.913-.685Zm.913-3.9a7.883,7.883,0,0,1,2.6-.389,7.883,7.883,0,0,1,2.6.389c.674.245.913.522.913.685s-.239.44-.913.685a7.884,7.884,0,0,1-2.6.389,7.884,7.884,0,0,1-2.6-.389c-.674-.245-.913-.523-.913-.685S4.679,7.212,5.353,6.967Zm5.192,8.188a7.884,7.884,0,0,1-2.6.389,7.884,7.884,0,0,1-2.6-.389c-.674-.245-.913-.523-.913-.685V13.138a3.431,3.431,0,0,0,.7.34,8.5,8.5,0,0,0,2.805.426,8.5,8.5,0,0,0,2.805-.426,3.431,3.431,0,0,0,.7-.34V14.47c0,.163-.239.44-.913.685Z" transform="translate(0 0)" fill="#49b6e7" stroke="#49b6e7" stroke-width="0.2"/>
      <path id="XMLID_893_" d="M77.171,74.48a.311.311,0,1,0-.22-.091A.313.313,0,0,0,77.171,74.48Z" transform="translate(-74.473 -71.566)" fill="#49b6e7" stroke="#49b6e7" stroke-width="0.2"/>
    </g>
  </g>
</svg>
