<svg xmlns="http://www.w3.org/2000/svg" width="11.682" height="16" viewBox="0 0 11.682 16">
  <g id="privacy" transform="translate(0 0)">
    <path id="Path_43" data-name="Path 43" d="M172.542,296.057a.628.628,0,0,0,.628-.628v-2.6a.628.628,0,0,0-1.256,0v2.6A.628.628,0,0,0,172.542,296.057Zm0,0" transform="translate(-166.701 -283.749)" fill="#49b6e7"/>
    <path id="Path_44" data-name="Path 44" d="M11.213,5.141H8.995V2.858A3.02,3.02,0,0,0,5.841,0,3.02,3.02,0,0,0,2.687,2.858V5.141H.468A.469.469,0,0,0,0,5.61V11.6A4.4,4.4,0,0,0,4.395,16H7.287A4.4,4.4,0,0,0,11.682,11.6V5.61a.469.469,0,0,0-.469-.469ZM3.625,2.858A2.087,2.087,0,0,1,5.841.937,2.087,2.087,0,0,1,8.057,2.858V5.141H3.625Zm7.12,8.747a3.461,3.461,0,0,1-3.457,3.457H4.395A3.461,3.461,0,0,1,.937,11.6V6.079h9.807Zm0,0" fill="#49b6e7"/>
  </g>
</svg>
