<svg id="server" xmlns="http://www.w3.org/2000/svg" width="15" height="15" viewBox="0 0 15 15">
  <g id="Group_13" data-name="Group 13">
    <g id="Group_12" data-name="Group 12">
      <path id="Path_31" data-name="Path 31" d="M15,4.091V1.364A1.365,1.365,0,0,0,13.636,0H1.364A1.365,1.365,0,0,0,0,1.364V4.091A1.355,1.355,0,0,0,.471,5.114,1.355,1.355,0,0,0,0,6.136V8.864A1.355,1.355,0,0,0,.471,9.886,1.355,1.355,0,0,0,0,10.909v2.727A1.365,1.365,0,0,0,1.364,15H13.636A1.365,1.365,0,0,0,15,13.636V10.909a1.355,1.355,0,0,0-.471-1.023A1.355,1.355,0,0,0,15,8.864V6.136a1.355,1.355,0,0,0-.471-1.023A1.355,1.355,0,0,0,15,4.091Zm-.682,9.545a.683.683,0,0,1-.682.682H1.364a.683.683,0,0,1-.682-.682V10.909a.683.683,0,0,1,.682-.682H13.636a.683.683,0,0,1,.682.682Zm0-4.773a.683.683,0,0,1-.682.682H1.364a.683.683,0,0,1-.682-.682V6.136a.683.683,0,0,1,.682-.682H13.636a.683.683,0,0,1,.682.682Zm0-4.773a.683.683,0,0,1-.682.682H1.364a.683.683,0,0,1-.682-.682V1.364A.683.683,0,0,1,1.364.682H13.636a.683.683,0,0,1,.682.682Z" fill="#49b6e7"/>
      <path id="Path_32" data-name="Path 32" d="M64.409,42.667a.409.409,0,0,0-.409.409v2.455a.409.409,0,1,0,.818,0V43.076A.409.409,0,0,0,64.409,42.667Z" transform="translate(-61.707 -41.031)" fill="#49b6e7"/>
      <path id="Path_33" data-name="Path 33" d="M107.075,42.667a.409.409,0,0,0-.409.409v2.455a.409.409,0,1,0,.818,0V43.076A.409.409,0,0,0,107.075,42.667Z" transform="translate(-103.289 -41.031)" fill="#49b6e7"/>
      <path id="Path_34" data-name="Path 34" d="M149.742,42.667a.409.409,0,0,0-.409.409v2.455a.409.409,0,1,0,.818,0V43.076A.409.409,0,0,0,149.742,42.667Z" transform="translate(-144.606 -41.031)" fill="#49b6e7"/>
      <circle id="Ellipse_11" data-name="Ellipse 11" cx="0.818" cy="0.818" r="0.818" transform="translate(11.08 2.284)" fill="#49b6e7"/>
      <circle id="Ellipse_12" data-name="Ellipse 12" cx="0.818" cy="0.818" r="0.818" transform="translate(9.355 2.284)" fill="#49b6e7"/>
      <path id="Path_35" data-name="Path 35" d="M64.409,192a.409.409,0,0,0-.409.409v2.455a.409.409,0,1,0,.818,0v-2.455A.409.409,0,0,0,64.409,192Z" transform="translate(-61.707 -186.136)" fill="#49b6e7"/>
      <path id="Path_36" data-name="Path 36" d="M107.075,192a.409.409,0,0,0-.409.409v2.455a.409.409,0,0,0,.818,0v-2.455A.409.409,0,0,0,107.075,192Z" transform="translate(-103.289 -186.136)" fill="#49b6e7"/>
      <path id="Path_37" data-name="Path 37" d="M149.742,192a.409.409,0,0,0-.409.409v2.455a.409.409,0,1,0,.818,0v-2.455A.409.409,0,0,0,149.742,192Z" transform="translate(-144.606 -186.136)" fill="#49b6e7"/>
      <circle id="Ellipse_13" data-name="Ellipse 13" cx="0.818" cy="0.818" r="0.818" transform="translate(11.08 6.682)" fill="#49b6e7"/>
      <circle id="Ellipse_14" data-name="Ellipse 14" cx="0.818" cy="0.818" r="0.818" transform="translate(9.355 6.682)" fill="#49b6e7"/>
      <path id="Path_38" data-name="Path 38" d="M64.409,341.333a.409.409,0,0,0-.409.409V344.2a.409.409,0,1,0,.818,0v-2.455A.409.409,0,0,0,64.409,341.333Z" transform="translate(-61.707 -331.242)" fill="#49b6e7"/>
      <path id="Path_39" data-name="Path 39" d="M107.075,341.333a.409.409,0,0,0-.409.409V344.2a.409.409,0,1,0,.818,0v-2.455A.409.409,0,0,0,107.075,341.333Z" transform="translate(-103.289 -331.242)" fill="#49b6e7"/>
      <path id="Path_40" data-name="Path 40" d="M149.742,341.333a.409.409,0,0,0-.409.409V344.2a.409.409,0,1,0,.818,0v-2.455A.409.409,0,0,0,149.742,341.333Z" transform="translate(-144.606 -331.242)" fill="#49b6e7"/>
      <circle id="Ellipse_15" data-name="Ellipse 15" cx="0.818" cy="0.818" r="0.818" transform="translate(11.08 11.08)" fill="#49b6e7"/>
      <circle id="Ellipse_16" data-name="Ellipse 16" cx="0.818" cy="0.818" r="0.818" transform="translate(9.355 11.08)" fill="#49b6e7"/>
    </g>
  </g>
</svg>
