<svg xmlns="http://www.w3.org/2000/svg" width="36.508" height="46.897" viewBox="0 0 36.508 46.897">
  <g id="Group_15" data-name="Group 15" transform="translate(-204.746 -608.863)">
    <path id="Path_56" data-name="Path 56" d="M.606,7.61A.606.606,0,0,0,1.212,7V1.212H7A.606.606,0,1,0,7,0H.606A.606.606,0,0,0,0,.606V7A.606.606,0,0,0,.606,7.61Z" transform="translate(204.746 608.863)" fill="#49b6e7"/>
    <path id="Path_57" data-name="Path 57" d="M424.782,0h-6.4a.606.606,0,0,0,0,1.212h5.793V7a.606.606,0,1,0,1.212,0V.606A.606.606,0,0,0,424.782,0Z" transform="translate(-184.133 608.863)" fill="#49b6e7"/>
    <path id="Path_58" data-name="Path 58" d="M7,424.177H1.212v-5.793a.606.606,0,0,0-1.212,0v6.4a.606.606,0,0,0,.606.606H7a.606.606,0,1,0,0-1.212Z" transform="translate(204.746 230.372)" fill="#49b6e7"/>
    <path id="Path_59" data-name="Path 59" d="M424.782,417.778a.606.606,0,0,0-.606.606v5.793h-5.793a.606.606,0,0,0,0,1.212h6.4a.606.606,0,0,0,.606-.606v-6.4A.606.606,0,0,0,424.782,417.778Z" transform="translate(-184.133 230.372)" fill="#49b6e7"/>
    <path id="Path_60" data-name="Path 60" d="M80.564,72.551a.606.606,0,1,0,1.059.588,9.793,9.793,0,0,0,.949-2.434A3.32,3.32,0,0,0,85.514,68h2.649a.606.606,0,0,0,0-1.212H85.515a3.307,3.307,0,0,0-2.66-2.66v-.152a10.194,10.194,0,0,0-17.109-7.49.606.606,0,0,0,.822.89,8.982,8.982,0,0,1,15.075,6.6v2.811H74.471a1.91,1.91,0,0,0-3.621,0H63.679V63.982a8.943,8.943,0,0,1,1.48-4.941.606.606,0,0,0-1.011-.667,10.151,10.151,0,0,0-1.68,5.608v.152a3.308,3.308,0,0,0-2.66,2.66h-2.65a.606.606,0,0,0,0,1.212h2.65a3.32,3.32,0,0,0,2.941,2.7,9.88,9.88,0,0,0,6.525,7.026v1.732h-3a5.217,5.217,0,0,0-5.211,5.211v.356a1.424,1.424,0,0,0,1.423,1.423h3.162a.606.606,0,1,0,0-1.212H62.481a.211.211,0,0,1-.211-.211v-.356a4,4,0,0,1,4-4H79.12a4,4,0,0,1,4,4v.356a.211.211,0,0,1-.211.211H68.066a.606.606,0,1,0,0,1.212H82.909a1.424,1.424,0,0,0,1.423-1.423v-.356a5.217,5.217,0,0,0-5.211-5.211h-3V77.715a9.791,9.791,0,0,0,3.956-2.489.606.606,0,1,0-.869-.844A8.563,8.563,0,0,1,73.013,77h-.7a8.64,8.64,0,0,1-8.63-8.63V68h7.171a1.91,1.91,0,0,0,3.623,0h7.171v.365A8.637,8.637,0,0,1,80.564,72.551Zm-7.552,5.66a9.967,9.967,0,0,0,1.893-.181v1.433H70.485V78.041a9.857,9.857,0,0,0,1.824.17ZM62.467,65.377v1.416H61.051A2.1,2.1,0,0,1,62.467,65.377Zm.058,4.061A2.112,2.112,0,0,1,61.051,68h1.416v.365A9.934,9.934,0,0,0,62.525,69.438ZM72.661,68.1a.7.7,0,1,1,.7-.7A.7.7,0,0,1,72.661,68.1Zm10.194-2.721a2.1,2.1,0,0,1,1.416,1.416H82.854ZM84.271,68A2.111,2.111,0,0,1,82.8,69.438a9.843,9.843,0,0,0,.059-1.069V68Z" transform="translate(150.339 562.497)" fill="#49b6e7"/>
    <path id="Path_61" data-name="Path 61" d="M234.262,130.418a1.91,1.91,0,1,0-1.91-1.91A1.912,1.912,0,0,0,234.262,130.418Zm0-2.609a.7.7,0,1,1-.7.7A.7.7,0,0,1,234.262,127.81Z" transform="translate(-11.262 495.568)" fill="#49b6e7"/>
    <path id="Path_62" data-name="Path 62" d="M234.262,269.754a1.91,1.91,0,1,0,1.91,1.91A1.912,1.912,0,0,0,234.262,269.754Zm0,2.609a.7.7,0,1,1,.7-.7A.7.7,0,0,1,234.262,272.363Z" transform="translate(-11.262 363.975)" fill="#49b6e7"/>
  </g>
</svg>
