<svg xmlns="http://www.w3.org/2000/svg" width="108.98" height="139.707" viewBox="0 0 108.98 139.707">
  <g id="Group_2543" data-name="Group 2543" transform="translate(-126.5 -313.5)">
    <g id="Group_2542" data-name="Group 2542">
      <path id="Path_56" data-name="Path 56" d="M1.792,22.509a1.792,1.792,0,0,0,1.792-1.792V3.583H20.718a1.792,1.792,0,1,0,0-3.583H1.792A1.792,1.792,0,0,0,0,1.792V20.718A1.792,1.792,0,0,0,1.792,22.509Z" transform="translate(127 314)" fill="#49b6e7" stroke="#49b6e7" stroke-width="1"/>
      <path id="Path_57" data-name="Path 57" d="M438.494,0H419.569a1.792,1.792,0,1,0,0,3.583H436.7V20.718a1.792,1.792,0,1,0,3.583,0V1.792A1.792,1.792,0,0,0,438.494,0Z" transform="translate(-205.307 314)" fill="#49b6e7" stroke="#49b6e7" stroke-width="1"/>
      <path id="Path_58" data-name="Path 58" d="M20.718,436.7H3.583V419.57a1.792,1.792,0,0,0-3.583,0V438.5a1.792,1.792,0,0,0,1.792,1.792H20.718a1.792,1.792,0,1,0,0-3.583Z" transform="translate(127 12.42)" fill="#49b6e7" stroke="#49b6e7" stroke-width="1"/>
      <path id="Path_59" data-name="Path 59" d="M438.494,417.778a1.792,1.792,0,0,0-1.792,1.792V436.7H419.569a1.792,1.792,0,1,0,0,3.583h18.926a1.792,1.792,0,0,0,1.792-1.792V419.57A1.792,1.792,0,0,0,438.494,417.778Z" transform="translate(-205.307 12.42)" fill="#49b6e7" stroke="#49b6e7" stroke-width="1"/>
    </g>
    <g id="fingerprint" transform="translate(127.271 325.246)">
      <path id="Path_45" data-name="Path 45" d="M13.816,44.208a1.629,1.629,0,0,1-1.629-1.629,40.6,40.6,0,0,1,54.038-38.3,1.631,1.631,0,1,1-1.075,3.08,37.344,37.344,0,0,0-49.7,35.215,1.629,1.629,0,0,1-1.634,1.629Z" transform="translate(0.121 0)" fill="#49b6e7" stroke="#49b6e7" stroke-width="1"/>
      <path id="Path_46" data-name="Path 46" d="M68.426,67.081A1.629,1.629,0,0,1,66.8,65.452V40.115A37.245,37.245,0,0,0,49.943,8.9a1.63,1.63,0,1,1,1.792-2.724A40.495,40.495,0,0,1,70.055,40.115V65.452A1.629,1.629,0,0,1,68.426,67.081Z" transform="translate(23.407 2.463)" fill="#49b6e7" stroke="#49b6e7" stroke-width="1"/>
      <path id="Path_47" data-name="Path 47" d="M63.4,65.406a1.085,1.085,0,0,1-.311-.046c-5.835-1.764-9.941-8.292-9.928-15.786V27.185a1.337,1.337,0,1,1,2.61,0V49.574c-.009,5.99,3.273,11.207,7.937,12.616a1.644,1.644,0,0,1,.989,1.777A1.447,1.447,0,0,1,63.4,65.4Z" transform="translate(28.759 14.819)" fill="#49b6e7" stroke="#49b6e7" stroke-width="1"/>
      <path id="Path_48" data-name="Path 48" d="M13.623,51.011a1.629,1.629,0,1,1,0-3.258,9.847,9.847,0,0,0,9.836-9.836A29.432,29.432,0,0,1,80.486,27.691a1.63,1.63,0,1,1-3.054,1.14,26.174,26.174,0,0,0-50.715,9.093A13.108,13.108,0,0,1,13.623,51.011Z" transform="translate(0 4.086)" fill="#49b6e7" stroke="#49b6e7" stroke-width="1"/>
      <path id="Path_49" data-name="Path 49" d="M13.816,57.372a1.629,1.629,0,1,1,0-3.258,19.779,19.779,0,0,0,13.7-5.143,22.279,22.279,0,0,0,7-16.581v-.179A18.178,18.178,0,0,1,41.693,17.69a1.629,1.629,0,1,1,1.984,2.584,14.943,14.943,0,0,0-5.894,11.937v.179a25.536,25.536,0,0,1-8.08,19,22.936,22.936,0,0,1-15.887,5.986Z" transform="translate(0.121 9.659)" fill="#49b6e7" stroke="#49b6e7" stroke-width="1"/>
      <path id="Path_50" data-name="Path 50" d="M72.46,83.857a17.1,17.1,0,0,1-8.591-2.424,22.806,22.806,0,0,1-11.062-19.9V33.54A15.058,15.058,0,0,0,37.765,18.5a1.629,1.629,0,1,1,0-3.258,18.319,18.319,0,0,1,18.3,18.3V61.53a19.535,19.535,0,0,0,9.427,17.078,13.429,13.429,0,0,0,7.754,1.966,1.632,1.632,0,0,1,.207,3.258c-.331.013-.661.024-.992.024Z" transform="translate(15.185 8.33)" fill="#49b6e7" stroke="#49b6e7" stroke-width="1"/>
      <path id="Path_51" data-name="Path 51" d="M13.816,54.8a1.629,1.629,0,0,1,0-3.258c.163,0,16.756-.153,23.1-10.826a1.629,1.629,0,1,1,2.8,1.667C32.416,54.659,14.572,54.8,13.816,54.8Z" transform="translate(0.121 23.853)" fill="#49b6e7" stroke="#49b6e7" stroke-width="1"/>
      <path id="Path_52" data-name="Path 52" d="M13.813,77.988a1.629,1.629,0,0,1-.2-3.245C50.735,70.1,56.728,44.5,57,29.66a4.087,4.087,0,0,0-1.5-3.243,4.16,4.16,0,0,0-6.812,3.351A32.676,32.676,0,0,1,44,47.233a1.629,1.629,0,1,1-2.722-1.792,29.9,29.9,0,0,0,4.149-15.583A7.417,7.417,0,0,1,57.569,23.9a7.33,7.33,0,0,1,2.685,5.815c-.231,12.805-5.2,43.134-46.237,48.262a1.441,1.441,0,0,1-.2.013Z" transform="translate(0.123 12.705)" fill="#49b6e7" stroke="#49b6e7" stroke-width="1"/>
      <path id="Path_53" data-name="Path 53" d="M78.445,75.6a1.629,1.629,0,0,1-.536-.091,39.794,39.794,0,0,1-22.594-23c-3.931,5.376-14.281,16.275-36.021,21.32a1.629,1.629,0,1,1-.736-3.173c27.367-6.353,35.735-22.535,35.816-22.7a1.629,1.629,0,0,1,3.033.316C62.141,66.319,78.815,72.378,78.985,72.43a1.629,1.629,0,0,1-.539,3.167Z" transform="translate(3.335 28.339)" fill="#49b6e7" stroke="#49b6e7" stroke-width="1"/>
      <path id="Path_54" data-name="Path 54" d="M26.376,75.792a1.629,1.629,0,0,1-.417-3.206c17.739-4.695,21.162-11.6,21.2-11.659a1.647,1.647,0,0,1,1.394-.945,1.629,1.629,0,0,1,1.484.774c4.682,7.754,14.221,11.864,14.317,11.9a1.629,1.629,0,1,1-1.267,3,38.918,38.918,0,0,1-14.477-11.2c-2.429,2.813-8.355,7.712-21.814,11.274A1.767,1.767,0,0,1,26.376,75.792Z" transform="translate(8.016 36.47)" fill="#49b6e7" stroke="#49b6e7" stroke-width="1"/>
      <path id="Path_55" data-name="Path 55" d="M37.438,74.38a1.629,1.629,0,0,1-.922-2.973l4.235-2.9a1.629,1.629,0,1,1,1.843,2.686l-4.236,2.906A1.629,1.629,0,0,1,37.438,74.38Z" transform="translate(14.978 41.651)" fill="#49b6e7" stroke="#49b6e7" stroke-width="1"/>
    </g>
  </g>
</svg>
