<svg xmlns="http://www.w3.org/2000/svg" width="20.397" height="19.063" viewBox="0 0 20.397 19.063">
  <g id="house_1_" data-name="house (1)" transform="translate(0 -13.517)">
    <g id="Group_2440" data-name="Group 2440" transform="translate(0 13.517)">
      <path id="Path_2076" data-name="Path 2076" d="M20.236,21.392l-.024-.02h0l-9.7-7.747a.494.494,0,0,0-.616,0l-9.7,7.747a.494.494,0,0,0-.078.694l.02.024,1.937,2.133a.487.487,0,0,0,.669.053l.455-.368v8.188a.5.5,0,0,0,.5.486H16.705a.5.5,0,0,0,.5-.486V23.906l.455.368a.489.489,0,0,0,.67-.053l1.936-2.133A.494.494,0,0,0,20.236,21.392Zm-8.013,10.2H8.175V26.705h4.048Zm4,0H13.21v-5.36a.5.5,0,0,0-.483-.514H7.67a.5.5,0,0,0-.483.514v5.36H4.176V23.116L10.2,18.3l6.023,4.817Zm1.692-8.378-7.406-5.933a.494.494,0,0,0-.617,0L2.484,23.214l-1.271-1.4L10.2,14.642l8.986,7.172Z" transform="translate(0 -13.517)" fill="#163f76"/>
    </g>
  </g>
</svg>
