<svg xmlns="http://www.w3.org/2000/svg" xmlns:xlink="http://www.w3.org/1999/xlink" width="342" height="866" viewBox="0 0 342 866">
  <defs>
    <clipPath id="clip-path">
      <rect width="342" height="866" fill="none"/>
    </clipPath>
    <linearGradient id="linear-gradient" x1="0.5" x2="0.5" y2="1.066" gradientUnits="objectBoundingBox">
      <stop offset="0" stop-color="#1940d9"/>
      <stop offset="1" stop-color="#fff"/>
    </linearGradient>
  </defs>
  <g id="Scroll_Group_1" data-name="Scroll Group 1" clip-path="url(#clip-path)" style="isolation: isolate">
    <g id="Group_279" data-name="Group 279" transform="translate(-9 -83)">
      <g id="Group_278" data-name="Group 278">
        <rect id="Rectangle_Copy_16" data-name="Rectangle Copy 16" width="342" height="278" rx="6" transform="translate(9 83)" fill="#fff"/>
        <text id="Additional_text" data-name="Additional text" transform="translate(132 126)" fill="#2163ce" font-size="16" font-family="SegoeUI-Semibold, Segoe UI" font-weight="600" opacity="0.8"><tspan x="1.594" y="17">23h 28m 34s</tspan></text>
        <text id="Chart_title" data-name="Chart title" transform="translate(75 91)" font-size="15" font-family="SegoeUI-Semibold, Segoe UI" font-weight="600" opacity="0.8"><tspan x="33.256" y="16">Total hours this week</tspan></text>
        <line id="Line_180" data-name="Line 180" x2="334" transform="translate(13.5 118.5)" fill="none" stroke="#707070" stroke-width="1" opacity="0.8"/>
        <g id="Group_152" data-name="Group 152" transform="translate(1)" opacity="0.8">
          <path id="Area_2" d="M0,34.822s21.3,20.5,42.257,20.5S63.209,0,84.161,0s20.952,25.794,41.9,25.794c20.176,0,20.176,83.832,41.128,83.832s20.952-32.888,41.9-32.888,41.9,37.4,41.9,37.4V138H.353Z" transform="translate(60.238 173)" opacity="0.3" fill="url(#linear-gradient)"/>
          <path id="Area_2-2" data-name="Area_2" d="M0,34.822q21.3,20.5,42.257,20.5C63.209,55.322,63.209,0,84.161,0s20.952,25.794,41.9,25.794c20.176,0,20.176,83.832,41.128,83.832s20.952-32.888,41.9-32.888,41.9,37.4,41.9,37.4" transform="translate(60.238 173)" fill="none" stroke="#1940d9" stroke-miterlimit="10" stroke-width="1"/>
          <circle id="Oval" cx="4" cy="4" r="4" transform="translate(141.238 169)" fill="#1940d9"/>
          <g id="Group_150" data-name="Group 150" transform="translate(63 317)">
            <text id="M" font-size="8" font-family="NunitoSans-SemiBold, Nunito Sans" font-weight="600"><tspan x="11.636" y="8">M</tspan></text>
            <text id="T" transform="translate(112.658)" font-size="8" font-family="NunitoSans-SemiBold, Nunito Sans" font-weight="600"><tspan x="12.39" y="8">T</tspan></text>
            <text id="S" transform="translate(189.88)" font-size="8" font-family="NunitoSans-SemiBold, Nunito Sans" font-weight="600"><tspan x="12.302" y="8">S</tspan></text>
            <text id="S-2" data-name="S" transform="translate(228)" font-size="8" font-family="NunitoSans-SemiBold, Nunito Sans" font-weight="600"><tspan x="12.492" y="8">S</tspan></text>
            <text id="T-2" data-name="T" transform="translate(38.611)" font-size="8" font-family="NunitoSans-SemiBold, Nunito Sans" font-weight="600"><tspan x="12.39" y="8">T</tspan></text>
            <text id="F" transform="translate(151)" font-size="8" font-family="NunitoSans-SemiBold, Nunito Sans" font-weight="600"><tspan x="12.756" y="8">F</tspan></text>
            <text id="W" transform="translate(77)" font-size="8" font-family="NunitoSans-SemiBold, Nunito Sans" font-weight="600"><tspan x="8.58" y="8">W</tspan></text>
          </g>
          <path id="Average-line" d="M.5.5h247" transform="translate(63.029 311)" fill="none" stroke="#7c828a" stroke-miterlimit="10" stroke-width="1" stroke-dasharray="1 3"/>
          <g id="Group_151" data-name="Group 151" transform="translate(0 44.85)">
            <text id="_0" data-name="0" transform="translate(37 254.15)" fill="#7c828a" font-size="9" font-family="NunitoSans-Regular, Nunito Sans"><tspan x="13.6" y="9">0</tspan></text>
            <text id="_0-2" data-name="0" transform="translate(37 231.15)" fill="#7c828a" font-size="9" font-family="NunitoSans-Regular, Nunito Sans"><tspan x="13.6" y="9">4</tspan></text>
            <text id="_0-3" data-name="0" transform="translate(37 209.15)" fill="#7c828a" font-size="9" font-family="NunitoSans-Regular, Nunito Sans"><tspan x="13.6" y="9">8</tspan></text>
            <text id="_0-4" data-name="0" transform="translate(37 186.15)" fill="#7c828a" font-size="9" font-family="NunitoSans-Regular, Nunito Sans"><tspan x="8.2" y="9">12</tspan></text>
            <text id="_0-5" data-name="0" transform="translate(37 162.15)" fill="#7c828a" font-size="9" font-family="NunitoSans-Regular, Nunito Sans"><tspan x="8.209" y="9">16</tspan></text>
            <text id="_0-6" data-name="0" transform="translate(37 139.15)" fill="#7c828a" font-size="9" font-family="NunitoSans-Regular, Nunito Sans"><tspan x="8.2" y="9">20</tspan></text>
            <text id="_0-7" data-name="0" transform="translate(37 117.15)" fill="#7c828a" font-size="9" font-family="NunitoSans-Regular, Nunito Sans"><tspan x="8.2" y="9">20</tspan></text>
          </g>
        </g>
        <text id="Date_26_04_2021" data-name="Date 26/04/2021" transform="translate(141 347)" fill="#7f6cff" font-size="10" font-family="Lato-Semibold, Lato" font-weight="600" opacity="0.8"><tspan x="0" y="0">Date 26/04/2021</tspan></text>
      </g>
      <g id="Group_277" data-name="Group 277">
        <g id="Group_153" data-name="Group 153">
          <rect id="Rectangle_Copy_16-2" data-name="Rectangle Copy 16" width="342" height="286" rx="6" transform="translate(9 365)" fill="#fff"/>
        </g>
        <text id="Chart_title-2" data-name="Chart title" transform="translate(75 374)" font-size="15" font-family="SegoeUI-Semibold, Segoe UI" font-weight="600" opacity="0.8"><tspan x="18.376" y="16">Total Ticket of this month</tspan></text>
        <line id="Line_181" data-name="Line 181" x2="334" transform="translate(13.5 401.5)" fill="none" stroke="#707070" stroke-width="1" opacity="0.8"/>
        <text id="Date_26_04_2021-2" data-name="Date 26/04/2021" transform="translate(141 639)" fill="#7f6cff" font-size="10" font-family="Lato-Semibold, Lato" font-weight="600" opacity="0.8"><tspan x="0" y="0">Date 26/04/2021</tspan></text>
        <path id="Donut_1" d="M81,0a11,11,0,0,1,0,22A59.769,59.769,0,0,0,22.025,72.65l-.131.885A11,11,0,1,1,.109,70.465,81.773,81.773,0,0,1,81,0Z" transform="translate(98 427)" fill="#f44336" opacity="0.8"/>
        <path id="Donut_0" d="M73.6,10.524A11,11,0,0,1,85.068.011a80.914,80.914,0,0,1,49.844,142.1A81.479,81.479,0,0,1,.807,69.581a11,11,0,0,1,21.78,3.1,58.859,58.859,0,0,0,30.461,60.066,59.845,59.845,0,0,0,67.5-7.3,58.674,58.674,0,0,0,16.7-65.145A59.45,59.45,0,0,0,84.829,22.025l-.714-.035A11,11,0,0,1,73.6,10.524Z" transform="translate(98 427.001)" fill="#23df06" opacity="0.8"/>
        <text id="_76_" data-name="76%" transform="translate(119.001 493.5)" fill="#147ad6" font-size="22" font-family="SegoeUI-Semibold, Segoe UI" font-weight="600" opacity="0.8"><tspan x="42.86" y="24">213</tspan></text>
        <text id="Open" transform="translate(137 617)" fill="#565656" font-size="10" font-family="Lato-Semibold, Lato" font-weight="600" opacity="0.8"><tspan x="0" y="0">Open</tspan></text>
        <text id="Completed" transform="translate(189 617)" fill="#565656" font-size="10" font-family="Lato-Semibold, Lato" font-weight="600" opacity="0.8"><tspan x="0" y="0">Completed</tspan></text>
        <circle id="Ellipse_108" data-name="Ellipse 108" cx="4.5" cy="4.5" r="4.5" transform="translate(123 610)" fill="#f44336" opacity="0.8"/>
        <circle id="Ellipse_109" data-name="Ellipse 109" cx="4.5" cy="4.5" r="4.5" transform="translate(174 610)" fill="#36f443" opacity="0.8"/>
      </g>
      <g id="Group_156" data-name="Group 156" transform="translate(8994 21245)">
        <g id="Group_154" data-name="Group 154" transform="translate(-8994 -20954)">
          <rect id="Rectangle_Copy_16-3" data-name="Rectangle Copy 16" width="342" height="286" rx="6" transform="translate(9 365)" fill="#fff"/>
        </g>
        <text id="Chart_title-3" data-name="Chart title" transform="translate(-8936 -20580)" font-size="15" font-family="SegoeUI-Semibold, Segoe UI" font-weight="600"><tspan x="0.64" y="16">Total tickets this month by category</tspan></text>
        <line id="Line_182" data-name="Line 182" x2="334" transform="translate(-8980.5 -20552.5)" fill="none" stroke="#707070" stroke-width="1" opacity="0.14"/>
        <text id="Date_26_04_2021-3" data-name="Date 26/04/2021" transform="translate(-8853 -20315)" fill="#7f6cff" font-size="10" font-family="Lato-Semibold, Lato" font-weight="600"><tspan x="0" y="0">Date 26/04/2021</tspan></text>
        <rect id="Rectangle_Copy_13" data-name="Rectangle Copy 13" width="157" height="172" rx="12" transform="translate(-8895 -20529.5)" fill="none"/>
        <path id="Donut_0-2" data-name="Donut_0" d="M18.646,0A91.484,91.484,0,0,1,100.7,50.644a89.774,89.774,0,0,1-9.982,95.5A91.87,91.87,0,0,1,1.023,179.3L0,179.094,8.084,139.92A51.878,51.878,0,0,0,59.294,121.4a49.774,49.774,0,0,0,5.564-53A51.475,51.475,0,0,0,19.236,40l-.59,0Z" transform="translate(-8835.042 -20541.5)" fill="#d01365"/>
        <path id="Donut_1-2" data-name="Donut_1" d="M.756,0,40.425,5.132a50.441,50.441,0,0,0,38.9,55.69l.77.167-8.188,39.153A90.439,90.439,0,0,1,.585,1.4Z" transform="translate(-8907.002 -20463.066)" fill="#aa55d4"/>
        <path id="Donut_2" d="M89.837,0V40A50.763,50.763,0,0,0,39.778,83.785l-.1.763L0,79.452A90.782,90.782,0,0,1,88.472.01Z" transform="translate(-8906.837 -20541.5)" fill="#b134ac"/>
        <g id="Group_155" data-name="Group 155" transform="translate(-4.849)">
          <text id="None" transform="translate(-8882.151 -20335)" fill="#565656" font-size="10" font-family="Lato-Semibold, Lato" font-weight="600"><tspan x="0" y="0">None</tspan></text>
          <text id="Call_Back" data-name="Call Back" transform="translate(-8839.151 -20335)" fill="#565656" font-size="10" font-family="Lato-Semibold, Lato" font-weight="600"><tspan x="0" y="0">Call Back</tspan></text>
          <text id="Maintenance" transform="translate(-8779.151 -20335)" fill="#565656" font-size="10" font-family="Lato-Semibold, Lato" font-weight="600"><tspan x="0" y="0">Maintenance</tspan></text>
          <circle id="Ellipse_110" data-name="Ellipse 110" cx="4.5" cy="4.5" r="4.5" transform="translate(-8896.151 -20342)" fill="#aa55d4"/>
          <circle id="Ellipse_111" data-name="Ellipse 111" cx="4.5" cy="4.5" r="4.5" transform="translate(-8853.151 -20342)" fill="#b134ac"/>
          <circle id="Ellipse_112" data-name="Ellipse 112" cx="4.5" cy="4.5" r="4.5" transform="translate(-8793.151 -20342)" fill="#d01365"/>
        </g>
      </g>
    </g>
  </g>
</svg>
