<svg xmlns="http://www.w3.org/2000/svg" width="25.997" height="23.976" viewBox="0 0 25.997 23.976">
  <g id="ticket-up" transform="translate(-310.001 -691.012)">
    <g id="confirmation_number-24px" transform="translate(317.064 691.012) rotate(25)" opacity="0.96">
      <path id="Path_31" data-name="Path 31" d="M20.891,6.267V2.089A2.089,2.089,0,0,0,18.8,0H2.089A2.08,2.08,0,0,0,.01,2.089V6.267A2.086,2.086,0,0,1,2.089,8.356,2.089,2.089,0,0,1,0,10.446v4.178a2.1,2.1,0,0,0,2.089,2.089H18.8a2.1,2.1,0,0,0,2.089-2.089V10.446a2.089,2.089,0,1,1,0-4.178ZM18.8,4.742a4.171,4.171,0,0,0,0,7.228v2.653H2.089V11.971A4.192,4.192,0,0,0,4.178,8.356,4.17,4.17,0,0,0,2.1,4.742l-.01-2.653H18.8ZM9.4,11.49H11.49v2.089H9.4Zm0-4.178H11.49V9.4H9.4Zm0-4.178H11.49V5.223H9.4Z" transform="translate(0)" fill="#fff"/>
    </g>
  </g>
</svg>
